# xmcd
#
# Track frame offsets:
#	180
#	15400
#	27723
#	41070
#	56463
#	68437
#	80154
#	91893
#	103140
#	115563
#	128235
#	140011
#	152009
#	163817
#	172856
#	184834
#
# Disc length: 2638 seconds
#
# Revision: 0
# Processed by: cddbd v1.5.2PL0 Copyright (c) Steve Scherf et al.
# Submitted via: dBpowerAMP V4.0
#
DISCID=d00a4c10
DTITLE=Various Artist - Louisiana Boogie CD 1
DYEAR=1900
DGENRE=Country
TTITLE0=Williamson Brothers - Gonna die with my hammer
TTITLE1=Kentucky Ramblers - With my mother
TTITLE2=Dave and Howard - Serves 'em fine
TTITLE3=Jimmy Rodgers - Mississippi Delta blues
TTITLE4=Monroe Brothers - All the good time
TTITLE5=Jimmie Revard - Fox and hounds
TTITLE6=Gene Autrey - Blueberry Hill
TTITLE7=Ernest Tubb - I ain't tonkin' anymore
TTITLE8=Al Dexter - Pistol packin' mama
TTITLE9=red Foley - Freight train boogie
TTITLE10=Merle Travis - Nine pound hammer
TTITLE11=Boots Woodall - Since you've been gone
TTITLE12=Red Foley - Tennessee Saturday night
TTITLE13=Johnny Bond - Tumbling tumbleweeds
TTITLE14=Hank Williams - Lost highway
TTITLE15=Little Jimmy Dickens - Country boy
EXTD=
EXTT0=
EXTT1=
EXTT2=
EXTT3=
EXTT4=
EXTT5=
EXTT6=
EXTT7=
EXTT8=
EXTT9=
EXTT10=
EXTT11=
EXTT12=
EXTT13=
EXTT14=
EXTT15=
PLAYORDER=
